# xmcd
#
# Track frame offsets: 
#        150
#        13226
#        30738
#        49968
#        69915
#        86710
#        104002
#        115815
#
# Disc length: 1819 seconds
#
# Revision: 0
# Processed by: cddbd v1.5.2PL0 Copyright (c) Steve Scherf et al.
# Submitted via: ExactAudioCopy v0.95b3
#
DISCID=6a071908
DTITLE=Bottom Feeders - Live At The Studio
DYEAR=2006
DGENRE=Funk
TTITLE0=Angeline
TTITLE1=Special Delivery
TTITLE2=Goin Down
TTITLE3=Walk Behind You
TTITLE4=Key That Lincoln
TTITLE5=Nowhere Left To Go
TTITLE6=Whole Lotta Waitress
TTITLE7=Rescue Me
EXTD=
EXTT0=
EXTT1=
EXTT2=
EXTT3=
EXTT4=
EXTT5=
EXTT6=
EXTT7=
PLAYORDER=
